<svg width="209" height="209" viewBox="0 0 209 209" fill="none" xmlns="http://www.w3.org/2000/svg">
                <rect x="123.184" width="150" height="150" rx="40" transform="rotate(55.2073 123.184 0)" fill="#04788C" fill-opacity="0.1" />
                <path d="M138.08 67.032C138.08 83.8767 123.753 97.532 106.08 97.532C88.4065 97.532 74.0796 83.8767 74.0796 67.032C74.0796 50.1873 88.4065 36.532 106.08 36.532C123.753 36.532 138.08 50.1873 138.08 67.032Z" fill="url(#paint0_linear_192_198)" />
                <path fill-rule="evenodd" clip-rule="evenodd" d="M86.58 44.532C95.1407 44.532 102.08 51.4867 102.08 60.0657C102.08 68.6448 95.1407 75.5995 86.58 75.5995C78.0194 75.5995 71.0796 68.6448 71.0796 60.0657C71.0796 51.4867 78.0194 44.532 86.58 44.532ZM88.3677 68.4136L87.5963 69.0042L88.4354 69.3574L88.739 70.1661L89.44 69.5041L90.3991 69.4134L89.9933 68.6509L90.2825 67.7861L89.3306 67.977L88.5503 67.5333L88.3677 68.4136ZM82.1794 64.3778L80.2892 64.8185L81.5314 66.1408L81.4243 67.8514L83.2447 67.224L85.0687 67.8406L84.9515 66.1305L86.1859 64.8009L84.2931 64.3714L83.2319 62.9332L82.1794 64.3778ZM88.3965 62.7136L87.1915 63.7233L88.6231 64.486L89.2239 66.0348L90.3038 64.8828L91.8802 64.8303L91.1159 63.3557L91.4894 61.7745L89.9371 62.015L88.5916 61.0903L88.3965 62.7136Z" fill="#FFC317" />
                <path d="M141.08 60.0657C141.08 68.6448 134.14 75.5995 125.579 75.5995C117.018 75.5995 110.079 68.6448 110.079 60.0657C110.079 51.4867 117.018 44.532 125.579 44.532C134.14 44.532 141.08 51.4867 141.08 60.0657Z" fill="#FFC317" />
                <path d="M87.5325 80.175C87.5057 82.6014 89.4397 84.9501 92.9088 86.7045C96.378 88.4588 101.098 89.4751 106.031 89.5297C110.964 89.5843 115.705 88.6727 119.212 86.9956C122.719 85.3184 124.705 83.0131 124.731 80.5867C124.713 82.2787 125.316 79.0055 122.871 80.1751C120.425 81.3446 109.502 86.7989 106.062 86.7608C102.622 86.7227 91.7729 81.3984 89.3537 80.175C86.9345 78.9516 87.5138 81.8671 87.5325 80.175Z" fill="#FFC317" />
                <path d="M29.0462 146.532L21.2462 116.732H27.9662L33.8462 141.692H32.0462L38.2462 116.732H44.6462L50.8462 141.692H49.0462L54.9262 116.732H61.6462L53.8462 146.532H46.6462L40.4062 122.532H42.4862L36.2462 146.532H29.0462ZM69.4537 147.012C67.8803 147.012 66.5203 146.759 65.3737 146.252C64.227 145.745 63.347 145.025 62.7337 144.092C62.1203 143.132 61.8137 141.999 61.8137 140.692C61.8137 139.465 62.0937 138.385 62.6537 137.452C63.2137 136.492 64.067 135.692 65.2137 135.052C66.387 134.412 67.8403 133.959 69.5737 133.692L76.2537 132.612V137.012L70.6537 138.012C69.8003 138.172 69.147 138.452 68.6937 138.852C68.2403 139.225 68.0137 139.772 68.0137 140.492C68.0137 141.159 68.267 141.679 68.7737 142.052C69.2803 142.425 69.907 142.612 70.6537 142.612C71.6403 142.612 72.507 142.399 73.2537 141.972C74.0003 141.545 74.5737 140.972 74.9737 140.252C75.4003 139.505 75.6137 138.692 75.6137 137.812V132.132C75.6137 131.305 75.2803 130.612 74.6137 130.052C73.9737 129.492 73.0937 129.212 71.9737 129.212C70.907 129.212 69.9603 129.505 69.1337 130.092C68.3337 130.679 67.747 131.452 67.3737 132.412L62.5737 130.132C63.0003 128.905 63.6803 127.852 64.6137 126.972C65.547 126.092 66.667 125.412 67.9737 124.932C69.2803 124.452 70.707 124.212 72.2537 124.212C74.0937 124.212 75.7203 124.545 77.1337 125.212C78.547 125.879 79.6403 126.812 80.4137 128.012C81.2137 129.185 81.6137 130.559 81.6137 132.132V146.532H76.0137V143.012L77.3737 142.772C76.7337 143.732 76.027 144.532 75.2537 145.172C74.4803 145.785 73.6137 146.239 72.6537 146.532C71.6937 146.852 70.627 147.012 69.4537 147.012ZM92.054 146.532L84.254 116.732H90.974L96.854 141.692H95.054L101.254 116.732H107.654L113.854 141.692H112.054L117.934 116.732H124.654L116.854 146.532H109.654L103.414 122.532H105.494L99.254 146.532H92.054Z" fill="#FFC317" />
                <path d="M132.461 147.012C130.888 147.012 129.528 146.759 128.381 146.252C127.235 145.745 126.355 145.025 125.741 144.092C125.128 143.132 124.821 141.999 124.821 140.692C124.821 139.465 125.101 138.385 125.661 137.452C126.221 136.492 127.075 135.692 128.221 135.052C129.395 134.412 130.848 133.959 132.581 133.692L139.261 132.612V137.012L133.661 138.012C132.808 138.172 132.155 138.452 131.701 138.852C131.248 139.225 131.021 139.772 131.021 140.492C131.021 141.159 131.275 141.679 131.781 142.052C132.288 142.425 132.915 142.612 133.661 142.612C134.648 142.612 135.515 142.399 136.261 141.972C137.008 141.545 137.581 140.972 137.981 140.252C138.408 139.505 138.621 138.692 138.621 137.812V132.132C138.621 131.305 138.288 130.612 137.621 130.052C136.981 129.492 136.101 129.212 134.981 129.212C133.915 129.212 132.968 129.505 132.141 130.092C131.341 130.679 130.755 131.452 130.381 132.412L125.581 130.132C126.008 128.905 126.688 127.852 127.621 126.972C128.555 126.092 129.675 125.412 130.981 124.932C132.288 124.452 133.715 124.212 135.261 124.212C137.101 124.212 138.728 124.545 140.141 125.212C141.555 125.879 142.648 126.812 143.421 128.012C144.221 129.185 144.621 130.559 144.621 132.132V146.532H139.021V143.012L140.381 142.772C139.741 143.732 139.035 144.532 138.261 145.172C137.488 145.785 136.621 146.239 135.661 146.532C134.701 146.852 133.635 147.012 132.461 147.012ZM157.582 147.012C155.182 147.012 153.088 146.452 151.302 145.332C149.542 144.185 148.342 142.652 147.702 140.732L152.102 138.652C152.662 139.825 153.422 140.745 154.382 141.412C155.342 142.079 156.408 142.412 157.582 142.412C158.435 142.412 159.088 142.239 159.542 141.892C159.995 141.545 160.222 141.065 160.222 140.452C160.222 140.132 160.142 139.865 159.982 139.652C159.822 139.412 159.582 139.199 159.262 139.012C158.942 138.825 158.542 138.665 158.062 138.532L154.342 137.492C152.555 136.985 151.182 136.172 150.222 135.052C149.262 133.905 148.782 132.559 148.782 131.012C148.782 129.652 149.128 128.465 149.822 127.452C150.515 126.439 151.488 125.652 152.742 125.092C153.995 124.505 155.435 124.212 157.062 124.212C159.195 124.212 161.062 124.719 162.662 125.732C164.288 126.719 165.435 128.119 166.102 129.932L161.662 132.012C161.342 131.105 160.755 130.385 159.902 129.852C159.075 129.292 158.128 129.012 157.062 129.012C156.288 129.012 155.675 129.172 155.222 129.492C154.795 129.812 154.582 130.252 154.582 130.812C154.582 131.105 154.662 131.372 154.822 131.612C154.982 131.852 155.235 132.065 155.582 132.252C155.955 132.439 156.408 132.612 156.942 132.772L160.422 133.812C162.235 134.345 163.622 135.159 164.582 136.252C165.542 137.319 166.022 138.639 166.022 140.212C166.022 141.572 165.662 142.759 164.942 143.772C164.248 144.785 163.275 145.585 162.022 146.172C160.768 146.732 159.288 147.012 157.582 147.012ZM169.608 146.532V116.252H175.608V129.012L174.888 128.052C175.394 126.745 176.208 125.785 177.328 125.172C178.474 124.532 179.808 124.212 181.328 124.212C182.981 124.212 184.421 124.559 185.648 125.252C186.901 125.945 187.874 126.919 188.568 128.172C189.261 129.399 189.608 130.839 189.608 132.492V146.532H183.608V133.772C183.608 132.919 183.434 132.185 183.088 131.572C182.768 130.959 182.301 130.479 181.688 130.132C181.101 129.785 180.408 129.612 179.608 129.612C178.834 129.612 178.141 129.785 177.528 130.132C176.914 130.479 176.434 130.959 176.088 131.572C175.768 132.185 175.608 132.919 175.608 133.772V146.532H169.608Z" fill="#06A7C3" />
                <defs>
                    <linearGradient id="paint0_linear_192_198" x1="145.265" y1="93.9933" x2="57.3943" y2="73.103" gradientUnits="userSpaceOnUse">
                        <stop stop-color="#06B6D4" />
                        <stop offset="0.427885" stop-color="#0589A0" />
                        <stop offset="0.663362" stop-color="#04788C" />
                        <stop offset="0.663462" stop-color="#035E6E" />
                    </linearGradient>
                </defs>
            </svg>