<svg width="1117" height="743" viewBox="0 0 1117 743" fill="none" xmlns="http://www.w3.org/2000/svg">
<path d="M820.075 631.823C808.91 636.098 798.219 641.799 785.866 642.036C757.597 642.274 734.316 630.16 713.174 613.058C671.364 579.092 644.995 533.486 620.526 486.693C599.146 445.839 581.804 402.609 557.336 363.417C539.044 333.963 518.614 306.648 489.394 286.695C474.903 276.957 459.462 269.831 441.645 268.406C437.844 268.168 431.905 267.693 431.43 264.843C430.717 260.805 435.706 258.43 439.507 256.529C463.738 244.653 489.394 241.565 515.763 242.99C548.071 244.891 577.291 255.104 602.947 275.532C625.753 293.584 641.906 316.861 655.922 341.564C678.015 380.519 696.307 421.611 719.113 460.09C727.902 475.055 737.405 489.544 751.896 499.995C771.375 514.247 793.231 512.821 810.573 496.194C837.417 470.542 852.145 437.525 867.586 404.984C885.166 367.455 899.894 328.263 923.413 293.821C951.444 252.729 988.028 223.276 1038.15 214.012C1061.43 209.737 1084.95 208.549 1107.76 217.1C1111.32 218.525 1115.83 219 1116.31 223.751C1116.78 229.451 1111.08 229.214 1108 230.164C1069.04 244.178 1044.09 273.631 1023.66 307.598C998.718 348.69 981.614 393.82 960.234 436.813C927.926 502.608 895.856 568.403 855.471 629.685C833.853 662.701 810.097 694.055 777.314 717.095C732.178 748.686 673.739 751.536 630.504 719.708C610.311 704.743 596.058 684.791 580.617 665.789C574.915 658.663 569.214 651.3 563.037 644.649C551.397 631.823 537.381 632.773 526.691 646.549C511.725 666.027 498.659 686.929 479.654 703.081C449.96 728.496 415.276 729.684 384.156 705.456C352.798 680.991 331.181 648.687 309.801 615.908C259.438 538.474 217.628 456.29 173.205 375.293C155.625 342.989 138.284 310.448 114.053 282.182C86.496 250.116 54.4257 226.126 10.9526 220.425C7.38923 219.95 0.500074 220.663 0.0249582 215.912C-0.450158 211.162 5.96391 209.974 10.24 208.311C37.5591 198.573 65.3534 196.198 94.0979 198.335C133.532 201.423 167.978 215.912 197.911 241.09C224.28 263.18 244.71 290.496 262.289 319.949C292.934 371.255 317.64 425.649 347.335 477.43C364.676 507.833 382.968 537.524 407.674 562.702C415.039 570.303 423.353 576.479 433.331 580.517C450.91 587.643 467.301 582.417 477.516 566.74C487.969 550.826 490.582 532.299 493.67 514.247C494.383 510.684 495.096 507.121 495.571 503.558C497.946 483.606 511.962 475.292 532.63 488.356C553.06 501.183 566.125 521.135 578.716 541.087C596.77 570.065 612.449 600.469 634.78 626.835C656.873 652.725 683.479 672.202 717.687 676.953C751.421 681.703 781.591 671.015 807.009 647.737C811.998 642.986 816.749 637.998 821.5 633.01C822.926 631.585 825.064 630.872 824.113 628.022C822.926 629.447 821.5 630.635 820.075 631.823Z" fill="url(#paint0_linear_4003_362)"/>
<path d="M938.854 130.402C936.478 134.44 932.915 135.391 929.114 136.103C910.347 140.379 892.53 147.029 876.851 158.906C854.046 176.245 844.068 200.473 838.129 227.076C836.229 235.627 834.091 244.178 833.616 253.204C833.378 255.817 832.903 260.567 828.865 260.567C824.588 260.567 824.588 256.767 824.113 253.442C821.025 236.577 817.699 219.713 811.76 203.561C797.032 164.606 767.337 144.892 728.14 136.578C724.101 135.628 718.638 135.391 718.638 131.59C718.638 126.84 724.577 126.127 728.377 125.177C750.945 119.951 771.613 111.163 788.242 94.5359C807.484 75.2962 815.561 50.8308 820.55 24.9404C821.738 18.2896 823.163 11.6388 824.351 4.75055C824.826 2.13775 825.776 0 828.389 0C831.003 0 831.953 2.13775 832.428 4.75055C834.803 16.1519 837.179 27.5532 839.792 38.9545C850.007 86.935 880.652 114.013 927.689 124.227C931.489 125.177 936.241 125.652 938.854 130.402Z" fill="#FFCB33"/>
<path d="M820.075 631.822C821.5 630.635 822.925 629.447 824.351 628.022C825.539 630.872 823.163 631.822 821.738 633.01C821.263 632.773 820.55 632.297 820.075 631.822Z" fill="url(#paint1_linear_4003_362)"/>
<defs>
<linearGradient id="paint0_linear_4003_362" x1="32.0563" y1="-119.424" x2="1094.79" y2="264.976" gradientUnits="userSpaceOnUse">
<stop stop-color="#00BBDC"/>
</linearGradient>
<linearGradient id="paint1_linear_4003_362" x1="820.077" y1="630.747" x2="824.641" y2="630.747" gradientUnits="userSpaceOnUse">
<stop stop-color="#464EA1"/>
<stop offset="1" stop-color="#2B2976"/>
</linearGradient>
</defs>
</svg>
