<svg width="71" height="61" viewBox="0 0 71 61" fill="none" xmlns="http://www.w3.org/2000/svg">
<path d="M67.5 30.5C67.5 47.3447 53.1731 61 35.5 61C17.8269 61 3.5 47.3447 3.5 30.5C3.5 13.6553 17.8269 0 35.5 0C53.1731 0 67.5 13.6553 67.5 30.5Z" fill="url(#paint0_linear_184_223)"/>
<path fill-rule="evenodd" clip-rule="evenodd" d="M16.0004 8C24.5611 8 31.5009 14.9547 31.5009 23.5338C31.5009 32.1128 24.5611 39.0675 16.0004 39.0675C7.43979 39.0675 0.5 32.1128 0.5 23.5338C0.5 14.9547 7.43979 8 16.0004 8ZM17.7881 31.8816L17.0167 32.4722L17.8558 32.8254L18.1594 33.6342L18.8605 32.9721L19.8195 32.8814L19.4137 32.119L19.7029 31.2542L18.751 31.4451L17.9707 31.0013L17.7881 31.8816ZM11.5998 27.8458L9.70956 28.2865L10.9518 29.6088L10.8447 31.3195L12.6651 30.692L14.4891 31.3086L14.3719 29.5985L15.6063 28.2689L13.7135 27.8395L12.6523 26.4012L11.5998 27.8458ZM17.8169 26.1817L16.6119 27.1913L18.0435 27.954L18.6443 29.5028L19.7242 28.3508L21.3006 28.2983L20.5363 26.8237L20.9098 25.2425L19.3575 25.4831L18.012 24.5583L17.8169 26.1817Z" fill="#FFCB33"/>
<path d="M70.5 23.5338C70.5 32.1128 63.5602 39.0675 54.9996 39.0675C46.4389 39.0675 39.4991 32.1128 39.4991 23.5338C39.4991 14.9547 46.4389 8 54.9996 8C63.5602 8 70.5 14.9547 70.5 23.5338Z" fill="#FFCB33"/>
<path d="M16.9529 43.643C16.9261 46.0694 18.8601 48.4182 22.3292 50.1725C25.7984 51.9268 30.5186 52.9431 35.4515 52.9977C40.3843 53.0523 45.1258 52.1407 48.6327 50.4636C52.1397 48.7865 54.1249 46.4811 54.1517 44.0547C54.133 45.7468 54.7366 42.4735 52.291 43.6431C49.8454 44.8126 38.9219 50.2669 35.482 50.2288C32.042 50.1908 21.1934 44.8664 18.7741 43.643C16.3549 42.4196 16.9342 45.3351 16.9529 43.643Z" fill="#FFCB33"/>
<defs>
<linearGradient id="paint0_linear_184_223" x1="74.6857" y1="57.4613" x2="-13.1853" y2="36.571" gradientUnits="userSpaceOnUse">
<stop stop-color="#06B6D4"/>
<stop offset="0.427885" stop-color="#0589A0"/>
<stop offset="0.663362" stop-color="#04788C"/>
<stop offset="0.663462" stop-color="#035E6E"/>
</linearGradient>
</defs>
</svg>
