<svg width="234" height="209" viewBox="0 0 234 209" fill="none" xmlns="http://www.w3.org/2000/svg">
<rect x="143.184" width="150" height="150" rx="40" transform="rotate(55.2073 143.184 0)" fill="#04788C" fill-opacity="0.1"/>
<path d="M77.0807 121.588C76.0312 121.991 75.0264 122.528 73.8653 122.551C71.2082 122.573 69.02 121.431 67.0328 119.818C63.103 116.615 60.6245 112.313 58.3246 107.9C56.3151 104.047 54.6851 99.9703 52.3852 96.2741C50.6659 93.4963 48.7457 90.9202 45.9992 89.0384C44.6372 88.12 43.1859 87.4479 41.5112 87.3135C41.154 87.2911 40.5957 87.2463 40.5511 86.9775C40.4841 86.5967 40.953 86.3727 41.3102 86.1935C43.5878 85.0734 45.9992 84.7822 48.4777 84.9166C51.5144 85.0958 54.2608 86.0591 56.6723 87.9856C58.8159 89.6881 60.3342 91.8834 61.6516 94.2132C63.7282 97.887 65.4475 101.762 67.591 105.391C68.4172 106.803 69.3103 108.169 70.6723 109.155C72.5033 110.499 74.5575 110.365 76.1875 108.796C78.7106 106.377 80.095 103.263 81.5464 100.194C83.1987 96.6549 84.5831 92.9587 86.7936 89.7105C89.4284 85.835 92.867 83.0573 97.5783 82.1836C99.7665 81.7804 101.977 81.6684 104.121 82.4748C104.456 82.6093 104.88 82.6541 104.924 83.1021C104.969 83.6397 104.433 83.6173 104.143 83.7069C100.481 85.0286 98.1365 87.8064 96.2163 91.0098C93.8718 94.8852 92.2641 99.1415 90.2545 103.196C87.2178 109.401 84.2035 115.606 80.4076 121.386C78.3757 124.5 76.1429 127.457 73.0615 129.63C68.8191 132.609 63.3262 132.878 59.2624 129.876C57.3645 128.465 56.0248 126.583 54.5734 124.791C54.0375 124.119 53.5017 123.425 52.9211 122.797C51.827 121.588 50.5096 121.677 49.5048 122.977C48.0981 124.813 46.8701 126.785 45.0838 128.308C42.2927 130.705 39.0327 130.817 36.1077 128.532C33.1603 126.225 31.1284 123.178 29.1188 120.087C24.3852 112.784 20.4553 105.033 16.2799 97.3942C14.6276 94.3476 12.9976 91.2786 10.7201 88.6128C8.12996 85.5886 5.11559 83.3261 1.02946 82.7885C0.69453 82.7437 0.0470031 82.8109 0.00234588 82.3628C-0.0423113 81.9148 0.560561 81.8028 0.962476 81.646C3.53026 80.7275 6.14271 80.5035 8.84447 80.7051C12.551 80.9964 15.7887 82.3628 18.6021 84.7374C21.0805 86.8207 23.0008 89.3969 24.6531 92.1746C27.5335 97.0133 29.8557 102.143 32.6468 107.027C34.2767 109.894 35.996 112.694 38.3182 115.069C39.0104 115.786 39.7919 116.368 40.7297 116.749C42.382 117.421 43.9227 116.928 44.8828 115.45C45.8653 113.949 46.1109 112.201 46.4012 110.499C46.4682 110.163 46.5351 109.827 46.5798 109.491C46.8031 107.609 48.1205 106.825 50.0631 108.057C51.9833 109.267 53.2114 111.149 54.3948 113.03C56.0918 115.763 57.5655 118.631 59.6644 121.117C61.7409 123.559 64.2417 125.396 67.457 125.844C70.6277 126.292 73.4634 125.284 75.8526 123.089C76.3215 122.64 76.7681 122.17 77.2146 121.7C77.3486 121.565 77.5496 121.498 77.4602 121.229C77.3486 121.364 77.2146 121.476 77.0807 121.588Z" fill="#00BBDC"/>
<path d="M88.245 74.2983C88.0217 74.6792 87.6867 74.7688 87.3295 74.836C85.5655 75.2392 83.8909 75.8664 82.4172 76.9865C80.2736 78.6218 79.3358 80.9068 78.7776 83.4157C78.599 84.2222 78.398 85.0286 78.3534 85.8799C78.3311 86.1263 78.2864 86.5743 77.9068 86.5743C77.5049 86.5743 77.5049 86.2159 77.4602 85.9023C77.17 84.3118 76.8574 82.7213 76.2992 81.198C74.9148 77.5241 72.1237 75.6648 68.4395 74.8808C68.0599 74.7912 67.5463 74.7688 67.5463 74.4104C67.5463 73.9623 68.1046 73.8951 68.4618 73.8055C70.583 73.3127 72.5256 72.4838 74.0886 70.9157C75.8972 69.1012 76.6564 66.7939 77.1253 64.3521C77.237 63.7249 77.3709 63.0977 77.4826 62.448C77.5272 62.2016 77.6165 62 77.8622 62C78.1078 62 78.1971 62.2016 78.2417 62.448C78.465 63.5233 78.6883 64.5986 78.9339 65.6738C79.8941 70.1989 82.7744 72.7527 87.1955 73.7159C87.5528 73.8055 87.9993 73.8503 88.245 74.2983Z" fill="#FFCB33"/>
<path d="M77.0807 121.588C77.2146 121.476 77.3486 121.364 77.4826 121.229C77.5942 121.498 77.3709 121.588 77.2369 121.7C77.1923 121.677 77.1253 121.632 77.0807 121.588Z" fill="url(#paint0_linear_192_198)"/>
<path d="M107.214 131.694C105.083 131.694 103.12 131.275 101.324 130.437C99.5691 129.599 98.1488 128.405 97.0626 126.855C96.0183 125.263 95.4961 123.378 95.4961 121.199C95.4961 119.021 96.06 117.135 97.188 115.543C98.3159 113.909 99.8406 112.673 101.762 111.835C103.726 110.956 105.877 110.516 108.216 110.516C110.138 110.516 111.851 110.83 113.355 111.458C114.9 112.045 116.321 112.946 117.616 114.161L117.929 113.846C117.553 113.469 116.905 112.904 115.986 112.15V110.893C115.986 109.175 115.381 107.813 114.169 106.808C112.958 105.802 111.266 105.3 109.094 105.3C105.209 105.3 102.347 106.724 100.509 109.573C99.59 109.28 98.8172 108.819 98.1905 108.19C97.5639 107.52 97.2506 106.808 97.2506 106.054C97.2506 104.797 97.8146 103.645 98.9425 102.597C100.07 101.55 101.595 100.712 103.517 100.084C105.438 99.4551 107.527 99.1409 109.783 99.1409C114.211 99.1409 117.636 100.188 120.059 102.283C122.482 104.336 123.694 107.143 123.694 110.704V126.415C123.694 128.259 123.109 129.599 121.939 130.437C120.77 131.275 118.931 131.694 116.425 131.694V129.118C117.135 128.405 117.616 127.882 117.866 127.546L117.616 127.232C116.237 128.699 114.754 129.809 113.167 130.563C111.621 131.317 109.637 131.694 107.214 131.694ZM109.219 125.975C111.391 125.975 113.083 125.556 114.295 124.718C115.506 123.881 116.112 122.687 116.112 121.136C116.112 119.628 115.485 118.434 114.232 117.554C113.02 116.674 111.37 116.235 109.282 116.235C107.36 116.235 105.835 116.674 104.707 117.554C103.621 118.392 103.078 119.586 103.078 121.136C103.078 122.728 103.621 123.943 104.707 124.781C105.793 125.577 107.297 125.975 109.219 125.975Z" fill="#00BBDC"/>
<path d="M158.973 129.432C158.597 130.144 158.054 130.71 157.344 131.129C156.634 131.506 155.819 131.694 154.9 131.694C154.106 131.694 153.396 131.506 152.77 131.129C152.143 130.793 151.537 130.228 150.952 129.432L142.681 117.177L138.42 121.136V126.918C138.42 128.594 137.773 129.809 136.478 130.563C135.224 131.317 133.303 131.694 130.713 131.694V92.6051C130.713 88.5831 133.324 86.5721 138.546 86.5721V112.527L152.895 99.1409C154.984 100.775 156.028 102.116 156.028 103.163C156.028 103.833 155.84 104.42 155.464 104.923C155.13 105.425 154.587 106.012 153.835 106.682L147.255 112.841L158.973 129.432Z" fill="#FFCB33"/>
<path d="M175.135 131.694C171.668 131.694 169.036 130.71 167.24 128.74C165.485 126.729 164.608 124.195 164.608 121.136V91.3482C164.608 89.6305 165.234 88.4155 166.488 87.7033C167.783 86.9491 169.767 86.5721 172.44 86.5721V120.822C172.44 122.247 172.754 123.294 173.38 123.964C174.007 124.593 175.01 124.907 176.388 124.907C177.934 124.907 179.479 124.509 181.025 123.713C181.443 124.09 181.756 124.572 181.965 125.158C182.216 125.703 182.341 126.269 182.341 126.855C182.341 128.112 181.714 129.243 180.461 130.249C179.208 131.212 177.433 131.694 175.135 131.694Z" fill="#FFCB33"/>
<path d="M192.945 96.1872C191.442 96.1872 190.188 95.7473 189.186 94.8675C188.225 93.9458 187.745 92.7727 187.745 91.3482C187.745 89.9656 188.225 88.8345 189.186 87.9546C190.188 87.0329 191.442 86.5721 192.945 86.5721C194.449 86.5721 195.682 87.0329 196.642 87.9546C197.645 88.8345 198.146 89.9656 198.146 91.3482C198.146 92.7727 197.645 93.9458 196.642 94.8675C195.682 95.7473 194.449 96.1872 192.945 96.1872ZM188.998 103.917C188.998 102.199 189.645 100.984 190.94 100.272C192.235 99.518 194.199 99.1409 196.83 99.1409V126.918C196.83 128.594 196.183 129.809 194.888 130.563C193.593 131.317 191.63 131.694 188.998 131.694V103.917Z" fill="#FFCB33"/>
<path d="M205.552 105.174C205.552 103.247 206.157 101.759 207.369 100.712C208.622 99.6646 210.502 99.1409 213.008 99.1409V102.912C212.507 103.498 212.006 104.168 211.505 104.923L211.88 105.174C213.134 103.289 214.742 101.822 216.705 100.775C218.669 99.6855 220.841 99.1409 223.222 99.1409C225.353 99.1409 227.233 99.6227 228.862 100.586C230.491 101.55 231.744 102.87 232.621 104.545C233.54 106.221 234 108.107 234 110.201V126.918C234 128.594 233.353 129.809 232.057 130.563C230.762 131.317 228.799 131.694 226.167 131.694V111.333C226.167 109.741 225.687 108.442 224.726 107.436C223.807 106.431 222.449 105.928 220.653 105.928C218.523 105.928 216.768 106.598 215.39 107.939C214.011 109.238 213.322 110.872 213.322 112.841V126.918C213.322 128.594 212.695 129.809 211.442 130.563C210.189 131.317 208.225 131.694 205.552 131.694V105.174Z" fill="#FFCB33"/>
<defs>
<linearGradient id="paint0_linear_192_198" x1="0.108804" y1="100.24" x2="232.37" y2="100.24" gradientUnits="userSpaceOnUse">
<stop stop-color="#464EA1"/>
<stop offset="1" stop-color="#2B2976"/>
</linearGradient>
</defs>
</svg>
